<?xml version="1.0" encoding="utf-8"?>
<!-- Generator: Adobe Illustrator 23.0.0, SVG Export Plug-In . SVG Version: 6.00 Build 0)  -->
<svg version="1.1" id="Capa_1" xmlns="http://www.w3.org/2000/svg" xmlns:xlink="http://www.w3.org/1999/xlink" x="0px" y="0px"
	 viewBox="0 0 841.89 595.28" style="enable-background:new 0 0 841.89 595.28;" xml:space="preserve">
<style type="text/css">
	.st0{clip-path:url(#SVGID_2_);}
	.st1{fill:#2E3B8A;}
	.st2{fill:#D9882A;}
</style>
<g>
	<defs>
		<rect id="SVGID_1_" width="841.89" height="595.28"/>
	</defs>
	<clipPath id="SVGID_2_">
		<use xlink:href="#SVGID_1_"  style="overflow:visible;"/>
	</clipPath>
	<g class="st0">
		<g id="caja">
			<path class="st1" d="M110.56,520.63c0.62,0,1.14,0.12,1.57,0.35l3.71,2.14c-2.72,1.56-5.66,2.96-8.84,4.21
				c-3.18,1.25-6.66,2.31-10.46,3.19c-3.79,0.88-7.96,1.56-12.5,2.04c-4.53,0.48-9.52,0.72-14.95,0.72
				c-9.07,0-17.39-0.85-24.94-2.56c-7.56-1.71-14.05-4.13-19.48-7.27c-5.43-3.13-9.64-6.93-12.64-11.37
				c-2.99-4.45-4.49-9.39-4.49-14.83c0-5.34,1.54-10.22,4.63-14.64c3.09-4.41,7.41-8.21,12.96-11.37
				c5.55-3.17,12.22-5.63,19.99-7.37c7.78-1.74,16.35-2.61,25.73-2.61c8.94,0,16.87,0.75,23.79,2.24c6.91,1.49,13.2,3.6,18.88,6.32
				l-2.87,2.24c-0.49,0.4-1.26,0.6-2.31,0.6c-0.74,0-1.95-0.37-3.61-1.1c-1.67-0.73-3.98-1.54-6.94-2.41
				c-2.96-0.88-6.65-1.68-11.06-2.41c-4.41-0.73-9.7-1.1-15.87-1.1c-7.9,0-15.13,0.73-21.7,2.19c-6.57,1.46-12.22,3.55-16.94,6.27
				c-4.72,2.72-8.41,6.04-11.06,9.96c-2.65,3.92-3.98,8.31-3.98,13.19c0,4.98,1.35,9.43,4.03,13.34c2.69,3.92,6.37,7.23,11.06,9.93
				c4.69,2.7,10.23,4.78,16.62,6.22c6.39,1.44,13.28,2.16,20.69,2.16c4.69,0,8.87-0.16,12.54-0.5c3.67-0.33,7.05-0.83,10.13-1.49
				c3.09-0.66,5.95-1.48,8.61-2.44c2.65-0.96,5.28-2.09,7.87-3.39c0.31-0.13,0.62-0.24,0.93-0.33
				C109.94,520.67,110.25,520.63,110.56,520.63"/>
			<path class="st1" d="M373.14,532.48h-7.31c-0.86,0-1.57-0.13-2.13-0.37c-0.56-0.25-0.99-0.57-1.3-0.97l-15.36-20.46h-64.32
				l-15.36,20.46c-0.25,0.37-0.68,0.68-1.29,0.94c-0.62,0.27-1.36,0.4-2.22,0.4h-7.22l53.59-70.44h9.35L373.14,532.48z
				 M344.17,506.89l-26.66-35.59c-0.92-1.16-1.82-2.56-2.68-4.18c-0.37,0.8-0.77,1.55-1.21,2.27s-0.89,1.37-1.39,1.97l-26.66,35.54
				H344.17z"/>
			<path class="st1" d="M566.58,508.98c0,3.95-0.89,7.43-2.68,10.45c-1.79,3.02-4.38,5.56-7.77,7.62c-3.39,2.06-7.5,3.61-12.31,4.65
				c-4.81,1.05-10.25,1.57-16.29,1.57c-2.77,0-5.58-0.12-8.42-0.35c-2.84-0.23-5.77-0.59-8.79-1.1c0.06-0.46,0.14-0.93,0.23-1.39
				c0.09-0.47,0.2-0.93,0.32-1.39c0.12-0.3,0.35-0.57,0.69-0.8c0.34-0.23,0.94-0.35,1.8-0.35c0.56,0,1.22,0.06,1.99,0.17
				c0.77,0.12,1.68,0.24,2.73,0.37c1.04,0.13,2.28,0.26,3.7,0.37c1.42,0.12,3.06,0.17,4.91,0.17c4.69,0,8.91-0.4,12.68-1.19
				c3.76-0.8,6.97-2.02,9.63-3.66c2.65-1.65,4.67-3.72,6.06-6.22c1.39-2.51,2.08-5.45,2.08-8.84v-47.04h9.44V508.98z"/>
			<path class="st1" d="M834.34,532.48h-7.31c-0.86,0-1.57-0.13-2.13-0.37c-0.56-0.25-0.99-0.57-1.3-0.97l-15.36-20.46h-64.33
				l-15.36,20.46c-0.25,0.37-0.68,0.68-1.29,0.94c-0.62,0.27-1.36,0.4-2.22,0.4h-7.22l53.59-70.44h9.35L834.34,532.48z
				 M805.37,506.89l-26.66-35.59c-0.92-1.16-1.82-2.56-2.68-4.18c-0.37,0.8-0.77,1.55-1.2,2.27c-0.43,0.71-0.89,1.37-1.39,1.97
				l-26.66,35.54H805.37z"/>
		</g>
		<g>
			<path class="st2" d="M50.98,123.1V65.88H39.34v63.46C43.23,127.28,47.12,125.2,50.98,123.1"/>
			<path class="st2" d="M50.98,286.88V161.24c-3.9,2.08-7.79,4.19-11.65,6.34v128.77C43.19,293.16,47.08,290.01,50.98,286.88"/>
			<path class="st2" d="M39.34,341.3v76.91h11.65v-87.03C47.07,334.51,43.19,337.89,39.34,341.3"/>
			<polygon class="st2" points="290.4,266.53 106.08,82.2 114.18,73.54 278.75,238.13 278.75,65.88 290.4,65.88 			"/>
			<path class="st2" d="M107.12,128.03c-0.8,0.88-1.73,1.71-2.81,2.49v149.11c0.13,1.15,0.13,2.3,0,3.46v135.12h11.65V153.15
				l162.79,157.71v107.34h11.65V305.58L107.12,128.03z"/>
			<path class="st2" d="M554.42,418.21h-11.65V245.38l-110.49-90.49l-90.36,72.36V65.54l90.44,74.07L529.28,62l7.14,9.49
				l-94.67,75.81l112.67,92.27V418.21z M353.57,90.42v112.29l69.32-55.51L353.57,90.42z"/>
			<polygon class="st2" points="362.76,418.21 351.11,418.21 351.11,274.81 472.19,185.23 479.11,194.6 362.76,280.69 			"/>
			<polygon class="st2" points="817.53,414.72 814.55,406.73 702.19,100.1 589.71,414.64 578.75,410.72 702.05,65.88 828.45,410.65 
							"/>
			<polygon class="st2" points="702.05,418.09 634.55,259.25 645.27,254.69 702.18,388.62 760.54,254.65 771.22,259.3 			"/>
			<path class="st1" d="M147.17,228.79c0,5.41-4.39,9.8-9.8,9.8c-5.41,0-9.8-4.39-9.8-9.8c0-5.41,4.39-9.8,9.8-9.8
				C142.78,218.99,147.17,223.38,147.17,228.79"/>
			<path class="st1" d="M260.29,161.24c0,5.71-4.63,10.34-10.34,10.34s-10.34-4.63-10.34-10.34c0-5.71,4.63-10.34,10.34-10.34
				S260.29,155.53,260.29,161.24"/>
			<path class="st1" d="M388.23,146.56c0,6.68-5.41,12.09-12.09,12.09c-6.68,0-12.09-5.41-12.09-12.09
				c0-6.68,5.41-12.09,12.09-12.09C382.82,134.47,388.23,139.89,388.23,146.56"/>
			<path class="st1" d="M491.21,228.79c0,6.68-5.41,12.09-12.09,12.09c-6.68,0-12.09-5.41-12.09-12.09
				c0-6.68,5.41-12.09,12.09-12.09C485.79,216.7,491.21,222.11,491.21,228.79"/>
			<path class="st1" d="M716.15,301.72c0,6.68-5.41,12.09-12.09,12.09s-12.09-5.41-12.09-12.09c0-6.68,5.41-12.09,12.09-12.09
				S716.15,295.04,716.15,301.72"/>
			<path class="st1" d="M54.79,146.56c0,5.32-4.31,9.63-9.63,9.63c-5.32,0-9.63-4.31-9.63-9.63c0-5.32,4.31-9.63,9.63-9.63
				C50.48,136.93,54.79,141.24,54.79,146.56"/>
			<path class="st1" d="M54.79,313.81c0,5.32-4.31,9.63-9.63,9.63c-5.32,0-9.63-4.31-9.63-9.63c0-5.32,4.31-9.63,9.63-9.63
				C50.48,304.18,54.79,308.49,54.79,313.81"/>
		</g>
	</g>
</g>
</svg>
